<svg width="145" height="145" viewBox="0 0 145 145" fill="none" xmlns="http://www.w3.org/2000/svg">
<g clip-path="url(#clip0_2052_45)">
<path d="M88.8961 143.139C83.6252 144.353 78.1344 145 72.4966 145C32.4583 145 0 112.541 0 72.4972C0 32.4539 32.4583 0 72.4966 0C73.17 0 73.8449 0.00687204 74.5115 0.0329858C74.6448 0.100332 74.7712 0.180047 74.8922 0.266635C76.0866 1.1009 76.76 2.56877 76.5401 4.05038V4.06275C76.4728 4.49706 76.3394 4.93687 76.1127 5.36431C74.8592 7.73242 73.537 10.2545 72.1832 12.8906C71.9564 13.3304 71.7296 13.7771 71.5029 14.2182C70.3621 16.453 69.1938 18.7607 68.0201 21.1301C67.5459 22.084 67.0717 23.0447 66.5989 24.0054C66.1921 24.8465 65.7784 25.6863 65.3716 26.5274C63.1698 31.0973 60.9611 35.8212 58.839 40.6316C58.6053 41.1456 58.3785 41.6597 58.1517 42.1861C57.925 42.7001 57.6982 43.2265 57.4714 43.7337C54.4491 50.7129 51.6274 57.7925 49.2579 64.6301C49.0654 65.1909 48.8785 65.7242 48.6985 66.2657C48.5638 66.6588 48.4373 67.0395 48.3109 67.4188C48.1844 67.8201 48.058 68.2063 47.9302 68.5871C47.7639 69.1011 47.6031 69.6014 47.4505 70.0948C47.2966 70.5813 47.1495 71.0486 47.0038 71.5159C46.8829 71.9228 46.7633 72.3296 46.6423 72.724C46.4829 73.2573 46.329 73.7906 46.1819 74.3046C46.0294 74.8379 45.8823 75.3519 45.7421 75.8865C45.1951 77.8671 44.7085 79.8091 44.2811 81.7099C44.1876 82.1044 44.101 82.5181 44.0144 82.9043C43.9471 83.219 43.888 83.5255 43.8207 83.8389C43.7478 84.2058 43.6736 84.5591 43.6076 84.9329C43.521 85.3603 43.4399 85.7933 43.3671 86.2207C43.3465 86.321 43.3341 86.4269 43.3135 86.5203C43.2407 86.9409 43.1733 87.3615 43.1073 87.782C43.0331 88.2562 42.9603 88.7166 42.8998 89.1826C42.8393 89.577 42.7871 89.977 42.7404 90.3769C42.6002 91.5644 42.4861 92.7258 42.4132 93.8528C42.3926 94.1208 42.3789 94.3998 42.3665 94.6609C42.3459 95.0279 42.3322 95.3949 42.3267 95.7618C42.3129 96.1755 42.306 96.5755 42.306 96.9892C42.306 103.681 43.8605 108.999 47.5508 112.208C47.6237 112.274 47.6965 112.334 47.7776 112.395C47.8505 112.449 47.9302 112.501 48.0044 112.568C48.0264 112.583 48.0484 112.6 48.069 112.615L48.0731 112.618C48.1363 112.667 48.1982 112.718 48.2573 112.762C48.3782 112.861 48.4909 112.954 48.6105 113.042C48.7851 113.162 48.9582 113.275 49.1314 113.375C49.2455 113.449 49.3513 113.508 49.4654 113.576C49.5589 113.622 49.6455 113.669 49.7389 113.716C49.7925 113.749 49.8516 113.782 49.9052 113.802C49.9519 113.835 49.9987 113.863 50.0454 113.882C50.132 113.929 50.2186 113.982 50.312 114.022C50.3327 114.029 50.3519 114.043 50.3725 114.043C50.3986 114.069 50.433 114.083 50.4591 114.09C50.6392 114.176 50.8192 114.256 51.0061 114.336C51.046 114.363 51.0858 114.375 51.1271 114.396C51.2398 114.443 51.3539 114.49 51.4734 114.529C51.6329 114.583 51.7937 114.649 51.96 114.703C52.0741 114.742 52.1868 114.784 52.3008 114.817C52.4135 114.843 52.5345 114.877 52.6541 114.917C52.6747 114.917 52.687 114.922 52.7077 114.929C52.8341 114.969 52.9606 115.004 53.0815 115.037C57.1044 115.918 61.1741 113.468 62.209 109.412C62.3355 108.912 62.4757 108.391 62.6227 107.865C62.6887 107.604 62.7629 107.337 62.8358 107.077C62.9622 106.624 63.1024 106.17 63.2495 105.703C63.3154 105.495 63.3828 105.282 63.4501 105.075C63.8762 103.735 64.3641 102.36 64.9111 100.946C65.2383 100.119 65.564 99.3174 65.9048 98.5299C66.0052 98.2908 66.111 98.0571 66.2182 97.8235C66.6649 96.816 67.113 95.8622 67.5734 94.9344C67.726 94.6211 67.8799 94.327 68.0324 94.0273C68.1864 93.7332 68.3403 93.4391 68.4929 93.1532C69.1279 91.9616 70.9119 92.33 71.0754 93.6356C71.0782 93.6604 71.0809 93.6865 71.0823 93.7126C71.1153 94.2266 71.1483 94.7475 71.195 95.3014C71.2225 95.5612 71.2486 95.8209 71.2761 96.0945C71.3022 96.3625 71.3297 96.6483 71.3627 96.9164C71.3888 97.1555 71.4163 97.3891 71.4424 97.6159C71.4699 97.8894 71.5029 98.1561 71.5427 98.4309C71.5496 98.4969 71.562 98.5698 71.5688 98.6577C71.6431 99.1772 71.7159 99.7174 71.8025 100.264C72.1626 102.573 72.6505 105.075 73.324 107.69C73.4903 108.351 73.6703 109.018 73.8641 109.686C74.0978 110.493 74.352 111.32 74.6255 112.148C74.752 112.541 74.8853 112.949 75.0255 113.342C75.1327 113.669 75.2454 113.989 75.3595 114.316C75.6921 115.243 76.0467 116.17 76.4329 117.124C76.6061 117.545 76.7861 117.965 76.9676 118.4C77.1806 118.886 77.3936 119.38 77.6135 119.88C77.7675 120.214 77.9283 120.567 78.0946 120.908C78.3007 121.341 78.5083 121.768 78.7282 122.215C78.9481 122.643 79.168 123.089 79.3962 123.53C79.6422 124.003 79.8964 124.47 80.1562 124.952C80.3899 125.378 80.6304 125.798 80.8764 126.219C81.1238 126.639 81.3767 127.072 81.631 127.479C81.8701 127.893 82.1244 128.306 82.3773 128.708C82.3841 128.708 82.3841 128.713 82.3841 128.713C82.6384 129.121 82.8982 129.515 83.1579 129.908C83.4122 130.295 83.672 130.676 83.9194 131.048C83.9194 131.048 83.9235 131.051 83.9317 131.055C84.4458 131.81 84.9736 132.551 85.4931 133.25C86.0209 133.972 86.561 134.666 87.0943 135.319C87.6221 135.973 88.1361 136.606 88.6556 137.221C88.6694 137.228 88.6762 137.235 88.6831 137.247C88.8494 137.441 89.0226 137.641 89.1834 137.834C89.5366 138.228 89.784 138.682 89.9311 139.142C90.4108 140.557 89.9833 142.151 88.8961 143.139Z" fill="#BB006A"/>
<path d="M145 72.4972C145 91.2579 137.875 108.365 126.179 121.235C126.172 121.235 126.166 121.242 126.166 121.247C120.234 126.112 115.358 126.806 112.801 126.885C110.153 126.96 107.458 126.419 104.789 125.331C104.335 125.138 103.882 124.931 103.428 124.718H103.421C102.748 124.384 102.067 124.031 101.392 123.629C99.4737 122.486 97.5798 121.055 95.7463 119.358C95.7422 119.354 95.7394 119.351 95.7353 119.347C95.4247 119.058 95.1154 118.763 94.8076 118.459C94.387 118.045 93.9664 117.619 93.5472 117.171C93.5472 117.165 93.5404 117.165 93.5335 117.159C93.1198 116.711 92.7061 116.252 92.313 115.791C91.0788 114.342 89.8844 112.788 88.7368 111.121C88.1623 110.287 87.6152 109.419 87.0751 108.531C87.0682 108.525 87.0682 108.518 87.0613 108.505C86.5143 107.617 85.9879 106.704 85.4808 105.75C85.2265 105.289 84.9805 104.829 84.7331 104.348C83.9785 102.887 83.2652 101.365 82.5917 99.7779C82.578 99.7517 82.5642 99.7243 82.5519 99.6982C82.4185 99.3642 82.2784 99.0371 82.1437 98.7044C82.0639 98.5038 81.9842 98.3031 81.8976 98.1038C81.8303 97.9293 81.7643 97.7561 81.6901 97.5829C81.4097 96.8627 81.1307 96.1151 80.8627 95.3674C80.8627 95.3605 80.8572 95.3605 80.8503 95.3481C80.8435 95.3275 80.8366 95.3152 80.8297 95.3014C80.8297 95.2877 80.8228 95.2739 80.816 95.2739C80.5961 94.6403 80.383 94.0067 80.1631 93.3525C80.0958 93.1463 80.0298 92.9388 79.9625 92.7258C79.7687 92.1389 79.5886 91.5452 79.4017 90.9377C79.2491 90.4044 79.0952 89.8835 78.9481 89.3434C78.5152 87.8013 78.1139 86.2138 77.7538 84.5934C77.461 83.2657 77.1875 81.9174 76.9401 80.543C76.9264 80.4702 76.9332 80.3891 76.947 80.3094C76.9607 80.2695 76.98 80.2297 77.0075 80.1898C77.1531 79.9562 77.3332 79.6827 77.5407 79.3885C78.0218 78.6821 78.6416 77.841 79.4086 76.9338C79.7618 76.5133 80.1563 76.0858 80.5837 75.6391C81.0235 75.1856 81.4977 74.7252 82.0103 74.2647C82.2577 74.0517 82.5106 73.8249 82.7718 73.5981C83.0851 73.3439 83.4054 73.0841 83.7462 72.823C83.9991 72.6374 84.252 72.4368 84.52 72.2499C85.4464 71.5888 86.4676 70.9359 87.5822 70.3422C87.9217 70.1676 88.2557 69.9945 88.5897 69.835L89.09 69.5876C89.424 69.4337 89.7497 69.3004 90.0837 69.1602C90.1909 69.108 90.2981 69.0667 90.4039 69.02C90.4314 69.0076 90.4589 68.9953 90.4878 68.9856C90.5716 68.954 90.65 68.9238 90.731 68.8936C90.9386 68.8207 91.1447 68.7465 91.3454 68.6736C92.313 68.3204 93.2531 68.04 94.1533 67.8201C94.2344 67.7995 94.3142 67.7803 94.3939 67.7597C94.5478 67.7198 94.7072 67.6923 94.8543 67.6593C95.268 67.559 95.668 67.4862 96.0624 67.4188C96.3153 67.379 96.5558 67.3322 96.7964 67.2992C96.8294 67.2924 96.8555 67.2924 96.883 67.2855C96.9159 67.2786 96.9489 67.2786 96.9833 67.2663C97.096 67.2525 97.2101 67.2264 97.3228 67.2058C100.419 66.5255 101.893 62.8352 99.9988 60.2142C99.8778 60.0396 99.7445 59.8733 99.6043 59.707C99.471 59.5393 99.3377 59.3868 99.1906 59.2397C98.9116 58.9264 98.5969 58.6254 98.2574 58.3326C97.7942 57.9382 97.3214 57.5987 96.8472 57.3087C93.6613 55.3543 90.4163 55.5824 89.6508 55.6635C89.604 55.6635 89.5642 55.6704 89.5229 55.6896C88.9099 55.9233 88.2832 56.1968 87.6551 56.484C87.2881 56.6448 86.9143 56.818 86.5418 57.0049C86.1748 57.185 85.8079 57.3719 85.434 57.5657C84.5997 57.9986 83.7586 58.4797 82.912 58.9992C82.6247 59.1724 82.3443 59.3593 82.0639 59.5393C81.8303 59.7001 81.5966 59.8541 81.3699 59.9998C81.2764 60.074 81.1829 60.1276 81.0964 60.2004C80.8764 60.3406 80.6565 60.5 80.4435 60.6609C79.9157 61.0416 79.4017 61.4209 78.9083 61.8222C78.6554 62.0091 78.4149 62.2084 78.1743 62.416C78.0479 62.5149 77.9283 62.6153 77.8142 62.7156C77.6947 62.8228 77.5806 62.9231 77.461 63.0221L77.4404 63.0427C76.9731 63.4358 76.5264 63.8426 76.099 64.2563C76.0124 64.3374 75.9327 64.4171 75.8529 64.4968C75.8461 64.5037 75.8392 64.5037 75.8323 64.5243C75.7925 64.5573 75.7595 64.5834 75.7265 64.6233C75.6853 64.6576 75.6454 64.6975 75.6124 64.7373L75.5932 64.7566C75.5327 64.8033 75.4791 64.8638 75.4255 64.9174C75.365 64.9641 75.3128 65.0315 75.2592 65.0837C75.1451 65.1909 75.0448 65.2981 74.9389 65.4039C74.451 65.9042 73.9782 66.4059 73.5302 66.9117C73.3914 67.0725 73.2512 67.2264 73.111 67.3858C72.7165 67.8463 72.3372 68.2998 71.9702 68.7602C71.9656 68.7648 71.9633 68.7717 71.9633 68.7809C71.8163 68.954 71.6761 69.1341 71.5428 69.3004C71.5153 69.3402 71.4823 69.3815 71.4562 69.4213C71.4424 69.4337 71.4287 69.4543 71.4163 69.4681C71.2555 69.6742 71.1029 69.8818 70.9628 70.0742C70.769 70.3353 70.5752 70.5882 70.3951 70.8493C70.2288 71.0816 70.0611 71.3084 69.9086 71.5489C69.7079 71.8362 69.5141 72.1303 69.3272 72.4162L69.3203 72.423C69.2681 72.5096 69.2076 72.5838 69.1403 72.6567C69.0935 72.7103 69.0468 72.757 68.9946 72.7969C68.9602 72.8299 68.9272 72.8505 68.8874 72.8835C68.7005 73.0168 68.4929 73.1171 68.273 73.1638C68.2194 73.1776 68.1672 73.1776 68.1067 73.1845C68.0449 73.1954 67.9803 73.1996 67.917 73.1996C67.8607 73.2023 67.803 73.1996 67.7466 73.1968C67.6463 73.1776 67.5528 73.1707 67.4525 73.1377C67.2862 73.091 67.1185 73.0305 66.9728 72.9302C66.9123 72.8903 66.8587 72.8642 66.8051 72.8106C66.7515 72.7708 66.6993 72.724 66.6526 72.6773C66.4725 72.5096 66.3323 72.3035 66.2581 72.0492C66.1578 71.8032 66.1317 71.5091 66.1921 71.1957C66.2045 71.1352 66.2183 71.0761 66.232 71.0088C66.7653 68.5733 67.3521 66.1777 67.9995 63.8371C68.0998 63.4289 68.2139 63.0358 68.3266 62.6359C68.4462 62.2016 68.574 61.7549 68.7005 61.3274C68.82 60.9137 68.941 60.5 69.0743 60.0863C69.1609 59.773 69.2612 59.4527 69.3616 59.1256C69.5072 58.6652 69.6543 58.1993 69.8014 57.7389C69.888 57.4585 69.9814 57.1712 70.0749 56.8977C70.2219 56.4442 70.369 55.9906 70.5284 55.5371C71.8424 51.6406 73.291 47.8775 74.8592 44.2752C75.1327 43.621 75.4117 42.9873 75.6921 42.3592C75.7127 42.3194 75.732 42.2795 75.7457 42.2397C76.0591 41.5387 76.3725 40.8584 76.6996 40.1712C77.0267 39.451 77.3676 38.7432 77.707 38.056C77.7139 38.0367 77.7208 38.023 77.7277 38.0161C77.9805 37.4897 78.2348 36.9826 78.4946 36.4685C78.7076 36.0287 78.922 35.6082 79.1419 35.1807C79.3962 34.6804 79.656 34.187 79.9089 33.6936C80.1755 33.1864 80.449 32.6793 80.7294 32.179C80.9369 31.7914 81.1431 31.3983 81.3575 31.0176C81.6241 30.5242 81.8908 30.05 82.1643 29.5635C82.5519 28.8832 82.9381 28.2083 83.3325 27.528C83.6322 27.0209 83.9318 26.5137 84.2328 26.0134C84.6135 25.3867 84.9928 24.76 85.3735 24.1387C85.7611 23.512 86.1473 22.8908 86.5349 22.2901C86.9349 21.6565 87.3486 21.0161 87.7554 20.3962C88.1293 19.8286 88.5031 19.2623 88.8824 18.7084C89.2769 18.1202 89.67 17.5402 90.0699 16.9671C90.4644 16.3857 90.8644 15.8194 91.2643 15.2587C91.5846 14.7982 91.9048 14.3516 92.2319 13.9104C92.7061 13.2507 93.1858 12.5896 93.6668 11.956C94.0668 11.4158 94.4681 10.8757 94.8749 10.3479C94.9216 10.2874 94.9739 10.2146 95.0275 10.161C95.088 10.0882 95.1677 9.99469 95.2543 9.90123C95.2941 9.86137 95.3354 9.81464 95.3821 9.76792C95.4219 9.72119 95.4687 9.68133 95.5154 9.62773C95.5676 9.57412 95.6212 9.52739 95.6748 9.47379C95.7216 9.42706 95.7752 9.38033 95.8288 9.32673C95.8824 9.28 95.9346 9.22777 95.9951 9.18104C96.1751 9.02711 96.3758 8.8663 96.5888 8.71374C96.7098 8.62028 96.8362 8.5337 96.9695 8.44711C97.1166 8.34678 97.2692 8.25332 97.4368 8.15986C97.4492 8.14611 97.463 8.13924 97.4836 8.13237C97.61 8.05265 97.7502 7.98668 97.8904 7.91934C97.944 7.88635 97.9962 7.85886 98.0498 7.83275C98.1777 7.77228 98.311 7.71318 98.4512 7.65957C98.6972 7.55237 98.9638 7.45891 99.2373 7.37232C99.2648 7.35858 99.2978 7.34621 99.3239 7.33934C100.745 6.92014 102.025 6.92427 102.983 7.04384C103.488 7.10706 103.903 7.20327 104.202 7.28573H104.209C104.281 7.30635 104.342 7.31872 104.402 7.33934C104.602 7.43967 105.109 7.68569 105.737 8.00592C105.737 8.00592 106.464 8.37976 107.705 9.1137C107.718 9.12057 107.731 9.12744 107.745 9.13981C117.186 14.3914 125.318 21.7033 131.55 30.4569C131.891 30.9242 132.211 31.3846 132.211 31.3846C132.431 31.698 132.644 32.0113 132.852 32.3247C133.104 32.6862 133.345 33.0531 133.579 33.4256C140.811 44.7012 145 58.1127 145 72.4972Z" fill="#FF0068"/>
<g style="mix-blend-mode:multiply" opacity="0.35">
<path d="M71.0754 93.6356C70.6741 93.6865 70.2934 93.916 70.0639 94.3545C69.9099 94.6458 69.756 94.9427 69.6034 95.241C69.4495 95.5447 69.2956 95.8429 69.143 96.1604C68.6826 97.0992 68.2359 98.0667 67.7878 99.0879C67.682 99.3243 67.5748 99.5607 67.4744 99.804C67.135 100.601 66.8079 101.413 66.4807 102.252C65.9337 103.684 65.4458 105.078 65.0197 106.435C64.9524 106.646 64.8864 106.862 64.8191 107.072C64.672 107.545 64.5318 108.004 64.4054 108.464C64.3325 108.728 64.2583 108.999 64.1923 109.261C64.0453 109.796 63.9051 110.324 63.7786 110.829C62.7437 114.94 58.674 117.421 54.6511 116.529C54.5315 116.495 54.4037 116.462 54.2773 116.421C54.258 116.414 54.2443 116.407 54.2237 116.407C54.1041 116.367 53.9845 116.333 53.8704 116.306C53.7577 116.272 53.6437 116.232 53.5309 116.191C53.3633 116.137 53.2038 116.07 53.043 116.015C52.9235 115.975 52.8094 115.927 52.6967 115.88C52.6568 115.86 52.6156 115.846 52.5757 115.82C52.3888 115.739 52.2088 115.656 52.0287 115.57C52.0026 115.563 51.9696 115.549 51.9421 115.522C51.9229 115.522 51.9023 115.508 51.8816 115.501C51.7896 115.461 51.7016 115.408 51.615 115.36C51.5683 115.339 51.5215 115.313 51.4748 115.278C51.4226 115.258 51.3621 115.225 51.3085 115.19C51.215 115.144 51.1285 115.096 51.035 115.049C50.9209 114.982 50.8151 114.92 50.701 114.845C50.5278 114.744 50.3547 114.63 50.1815 114.507C50.0605 114.419 49.9478 114.325 49.8269 114.224C49.7472 114.162 49.6606 114.088 49.574 114.028C49.4998 113.96 49.4201 113.907 49.3472 113.852C49.2675 113.791 49.1933 113.731 49.1204 113.662C48.7493 113.335 48.4002 112.987 48.0731 112.618C48.1363 112.667 48.1982 112.718 48.2573 112.762C48.3782 112.861 48.4909 112.954 48.6105 113.042C48.7851 113.162 48.9582 113.275 49.1314 113.375C49.2455 113.449 49.3513 113.508 49.4654 113.576C49.5589 113.622 49.6455 113.669 49.7389 113.716C49.7925 113.749 49.8516 113.782 49.9052 113.802C49.952 113.835 49.9987 113.863 50.0454 113.882C50.132 113.929 50.2186 113.982 50.3121 114.022C50.3327 114.029 50.3519 114.043 50.3725 114.043C50.3986 114.069 50.433 114.083 50.4591 114.09C50.6392 114.176 50.8192 114.256 51.0061 114.336C51.046 114.363 51.0859 114.375 51.1271 114.396C51.2398 114.443 51.3539 114.49 51.4734 114.529C51.6329 114.583 51.7937 114.649 51.96 114.703C52.0741 114.742 52.1868 114.784 52.3008 114.817C52.4135 114.843 52.5345 114.877 52.6541 114.917C52.6747 114.917 52.6871 114.922 52.7077 114.929C52.8341 114.969 52.9606 115.004 53.0815 115.037C57.1044 115.918 61.1741 113.468 62.209 109.412C62.3355 108.912 62.4757 108.391 62.6227 107.865C62.6887 107.604 62.7629 107.337 62.8358 107.077C62.9622 106.624 63.1024 106.17 63.2495 105.703C63.3154 105.495 63.3828 105.282 63.4501 105.075C63.8762 103.735 64.3641 102.36 64.9111 100.946C65.2383 100.119 65.564 99.3174 65.9049 98.5299C66.0052 98.2908 66.111 98.0571 66.2182 97.8235C66.6649 96.816 67.113 95.8622 67.5734 94.9345C67.726 94.6211 67.8799 94.327 68.0325 94.0273C68.1864 93.7332 68.3403 93.4391 68.4929 93.1532C69.1279 91.9616 70.9119 92.33 71.0754 93.6356Z" fill="#003406"/>
</g>
<g style="mix-blend-mode:multiply" opacity="0.35">
<path d="M98.8923 68.0634C98.7796 68.084 98.6655 68.1115 98.5528 68.1253C98.5198 68.1376 98.4855 68.1376 98.4525 68.1445C98.4264 68.1514 98.3989 68.1514 98.3659 68.1582C98.1323 68.1926 97.8849 68.2325 97.632 68.2806C97.2375 68.3479 96.8376 68.4221 96.4239 68.5238C96.2768 68.5568 96.1174 68.5843 95.9634 68.6255C95.8837 68.6448 95.804 68.6654 95.7243 68.686C94.8034 68.9087 93.8358 69.1932 92.8476 69.5574C92.6483 69.6316 92.4408 69.7127 92.2346 69.7938C92.148 69.8281 92.0614 69.8625 91.9735 69.9024C91.847 69.9505 91.7137 69.9972 91.5941 70.0508C91.2602 70.1869 90.933 70.3353 90.5991 70.4837L90.0988 70.7339C89.7662 70.8961 89.439 71.072 89.0982 71.2479C87.9835 71.8568 86.9706 72.5055 86.0429 73.1748C85.7762 73.3645 85.522 73.5665 85.2759 73.7562C84.9351 74.0201 84.6148 74.284 84.3015 74.5341C84.0417 74.7568 83.7874 74.9932 83.54 75.209C83.0342 75.6763 82.5601 76.1422 82.1189 76.6026C81.6928 77.041 81.2984 77.4877 80.952 77.9138C80.1851 78.8127 79.5638 79.6717 79.0842 80.3877C78.8835 80.686 78.7034 80.9553 78.5564 81.1986C78.5495 81.2055 78.544 81.2124 78.5371 81.2192C78.5165 81.2536 78.5028 81.2866 78.4973 81.3209C78.4767 81.3814 78.4698 81.4488 78.4835 81.5106C78.4835 81.5312 78.4904 81.5367 78.4904 81.5505C78.7364 82.9372 79.0099 84.2952 79.2972 85.6407C79.6573 87.2763 80.0573 88.8857 80.4916 90.4346C80.6386 90.9817 80.7912 91.5218 80.9451 92.0496C81.1252 92.6584 81.3052 93.2604 81.499 93.8487C81.5664 94.0645 81.6323 94.2734 81.6997 94.4836C81.9265 95.1667 82.1532 95.8361 82.3869 96.5054C82.3924 96.5054 82.3993 96.5178 82.3993 96.5315C82.4061 96.5453 82.413 96.559 82.4199 96.5796C82.4268 96.5934 82.4336 96.5934 82.4336 96.5989C82.7003 97.3562 82.9806 98.1135 83.261 98.8433C83.3339 99.0192 83.4012 99.1951 83.4672 99.371C83.5345 99.547 83.6074 99.7229 83.6747 99.8988C83.8204 100.263 83.9743 100.629 84.1214 100.987C84.1352 101.013 84.1475 101.041 84.1613 101.068C84.8347 102.676 85.5494 104.219 86.3026 105.699C86.55 106.185 86.796 106.653 87.0503 107.119C87.5575 108.085 88.0839 109.011 88.6309 109.911C88.6378 109.924 88.6378 109.931 88.6446 109.937C89.1848 110.836 89.7318 111.716 90.3063 112.561C91.4539 114.25 92.6483 115.825 93.8826 117.293C94.2756 117.759 94.6893 118.227 95.103 118.679C95.1099 118.686 95.1168 118.686 95.1168 118.692C95.3229 118.915 95.5305 119.134 95.7353 119.347C95.4246 119.058 95.1154 118.763 94.8075 118.459C94.387 118.045 93.9664 117.619 93.5472 117.171C93.5472 117.165 93.5403 117.165 93.5335 117.159C93.1198 116.711 92.706 116.252 92.313 115.791C91.0787 114.342 89.8844 112.788 88.7367 111.121C88.1622 110.287 87.6152 109.419 87.075 108.531C87.0682 108.525 87.0682 108.518 87.0613 108.505C86.5143 107.617 85.9879 106.703 85.4807 105.75C85.2264 105.289 84.9804 104.829 84.733 104.348C83.9785 102.887 83.2651 101.365 82.5917 99.7779C82.5779 99.7517 82.5642 99.7243 82.5518 99.6982C82.4048 99.3449 82.2508 98.9835 82.1038 98.6234C82.0378 98.4502 81.9636 98.277 81.8976 98.1038C81.8303 97.9293 81.7643 97.7561 81.6901 97.5829C81.4097 96.8627 81.1307 96.1151 80.8627 95.3674C80.8627 95.3605 80.8572 95.3605 80.8503 95.3481C80.8434 95.3275 80.8365 95.3152 80.8297 95.3014C80.8297 95.2877 80.8228 95.2739 80.8159 95.2739C80.5837 94.6142 80.3569 93.9531 80.1287 93.2797C80.0627 93.0721 79.9954 92.866 79.9294 92.6529C79.7356 92.0716 79.5556 91.4778 79.3755 90.8772C79.2216 90.3577 79.069 89.823 78.922 89.2829C78.4877 87.7559 78.0877 86.1671 77.7276 84.5522C77.4404 83.2245 77.1668 81.8845 76.9208 80.5169C76.9208 80.5032 76.914 80.4963 76.914 80.4757C76.9002 80.4166 76.9071 80.3492 76.9263 80.2888C76.9332 80.2558 76.9469 80.2228 76.9676 80.1898C76.9731 80.1829 76.9799 80.1761 76.9868 80.1692C77.1339 79.9287 77.3139 79.662 77.5146 79.3693C77.9942 78.6615 78.6155 77.8148 79.3824 76.927C79.7288 76.5064 80.1232 76.0666 80.5493 75.6323C80.9905 75.1787 81.4633 74.7183 81.9704 74.2579C82.2178 74.0448 82.4707 73.8112 82.7319 73.5913C83.0452 73.3439 83.3655 73.0841 83.705 72.823C83.9524 72.6374 84.2053 72.4368 84.4733 72.2499C85.3996 71.5888 86.414 70.9483 87.5286 70.3477C87.8695 70.1745 88.1952 70.0013 88.5292 69.8419L89.0295 69.5945C89.3635 69.4474 89.6906 69.3004 90.0246 69.1671C90.1441 69.1135 90.2774 69.0667 90.4039 69.02C90.4314 69.0076 90.4589 68.9953 90.4877 68.9856C90.5468 68.9595 90.6059 68.9362 90.665 68.9142C90.8712 68.8345 91.0787 68.7534 91.278 68.6805C92.2662 68.3204 93.2324 68.04 94.1533 67.8201C94.2344 67.7995 94.3141 67.7803 94.3938 67.7597C94.5478 67.7198 94.7072 67.6923 94.8543 67.6593C95.268 67.559 95.6679 67.4862 96.0624 67.4188C96.3153 67.3721 96.5627 67.3322 96.7963 67.2992C96.8293 67.2924 96.8554 67.2924 96.8829 67.2855C96.9159 67.2786 96.9489 67.2786 96.9832 67.2663C97.0959 67.2525 97.21 67.2264 97.3227 67.2058C100.352 66.465 101.773 62.8352 99.9053 60.254C99.7843 60.0808 99.651 59.9132 99.5108 59.7469C99.3775 59.5806 99.2442 59.4266 99.0971 59.2796C98.8181 58.9662 98.5102 58.6652 98.1707 58.3793C97.566 57.8626 96.9448 57.442 96.3263 57.0998C96.4981 57.163 96.6726 57.2331 96.8472 57.3087C97.8038 57.7182 98.792 58.2996 99.7403 59.1201C100.08 59.4101 100.388 59.7153 100.668 60.0327C100.814 60.1812 100.947 60.3365 101.082 60.5055C101.222 60.6746 101.355 60.8436 101.475 61.0196C103.343 63.6351 101.922 67.313 98.8923 68.0634Z" fill="#003406"/>
</g>
<g style="mix-blend-mode:multiply" opacity="0.35">
<path d="M102.983 7.04384C102.342 7.07545 101.637 7.17991 100.895 7.40256C100.867 7.40943 100.834 7.42318 100.808 7.43692C100.647 7.48365 100.494 7.53175 100.334 7.58536C100.18 7.63896 100.028 7.69393 99.8737 7.76128C99.7197 7.82175 99.5672 7.8891 99.4201 7.97019C99.2937 8.02517 99.1727 8.08564 99.0532 8.15986C99.0133 8.1736 98.9734 8.19972 98.9322 8.2272C98.8058 8.29455 98.6793 8.36877 98.5597 8.4636C98.4525 8.53095 98.3522 8.59967 98.2519 8.68076C97.8918 8.9309 97.5523 9.22777 97.2444 9.56588C97.1922 9.61948 97.1386 9.66758 97.085 9.72119C97.0383 9.77616 96.9915 9.81602 96.9517 9.86412C96.9049 9.91085 96.8651 9.95758 96.8238 9.99882C96.7373 10.0937 96.6575 10.1885 96.5971 10.2627C96.5448 10.3163 96.4912 10.3905 96.4445 10.451C96.0377 10.9856 95.6363 11.5327 95.2364 12.081C94.7567 12.7229 94.2757 13.3922 93.8015 14.0616C93.4758 14.5082 93.1555 14.9604 92.8353 15.4277C92.434 15.9954 92.034 16.5699 91.6409 17.1581C91.2396 17.7395 90.8465 18.3277 90.4534 18.9228C90.0727 19.4836 89.6989 20.0581 89.325 20.6326C88.9182 21.2621 88.5045 21.9108 88.1045 22.5527C87.7169 23.1615 87.3307 23.7896 86.9431 24.426C86.5624 25.0541 86.1831 25.6891 85.8024 26.3254C85.5028 26.8326 85.2017 27.3452 84.9021 27.8592C84.5077 28.5492 84.1215 29.2323 83.7339 29.9222C83.4604 30.4156 83.1937 30.8953 82.9271 31.3956C82.714 31.7804 82.5065 32.179 82.3003 32.5721C82.02 33.0792 81.7465 33.5919 81.4784 34.1059C81.2256 34.6062 80.9658 35.1065 80.7115 35.6137C80.4916 36.0466 80.2786 36.4727 80.0642 36.918C79.8044 37.4389 79.5515 37.9529 79.2972 38.4875C79.2904 38.4944 79.2835 38.5068 79.278 38.5274C78.9371 39.2242 78.5963 39.9403 78.2705 40.6701C77.9434 41.3669 77.6287 42.0569 77.3153 42.7661C77.303 42.8073 77.2823 42.8472 77.2617 42.8884C76.9827 43.5234 76.7023 44.1652 76.4288 44.8277C74.8606 48.4795 73.4133 52.2921 72.098 56.2394C71.9386 56.6998 71.7915 57.1589 71.6445 57.6193C71.551 57.8956 71.4575 58.1869 71.371 58.4714C71.2239 58.9374 71.0782 59.4101 70.9311 59.8774C70.8308 60.2087 70.7305 60.533 70.6439 60.8505C70.5106 61.2697 70.3896 61.6889 70.27 62.1081C70.1436 62.541 70.0171 62.9932 69.8962 63.433C69.7835 63.8385 69.6694 64.2371 69.5691 64.6494C68.9231 67.023 68.3349 69.4502 67.8016 71.9173C67.7878 71.9846 67.7755 72.0451 67.7617 72.1069C67.7012 72.4244 67.7287 72.7213 67.8277 72.9714C67.8511 73.0525 67.8813 73.1281 67.917 73.1996C67.8607 73.2023 67.803 73.1996 67.7466 73.1968C67.6463 73.1776 67.5528 73.1707 67.4525 73.1377C67.2862 73.091 67.1185 73.0305 66.9728 72.9302C66.9123 72.8903 66.8587 72.8642 66.8051 72.8106C66.7515 72.7708 66.6993 72.724 66.6526 72.6773C66.4725 72.5096 66.3323 72.3035 66.2581 72.0492C66.1578 71.8032 66.1317 71.5091 66.1921 71.1957C66.2045 71.1352 66.2183 71.0761 66.232 71.0088C66.7653 68.5733 67.3521 66.1777 67.9995 63.8371C68.0998 63.4289 68.2139 63.0358 68.3266 62.6359C68.4462 62.2016 68.574 61.7549 68.7005 61.3274C68.82 60.9137 68.941 60.5001 69.0743 60.0864C69.1609 59.773 69.2612 59.4528 69.3616 59.1256C69.5072 58.6652 69.6543 58.1993 69.8014 57.7389C69.888 57.4585 69.9814 57.1712 70.0749 56.8977C70.2219 56.4442 70.369 55.9906 70.5284 55.5371C71.8424 51.6406 73.291 47.8775 74.8592 44.2752C75.1327 43.621 75.4117 42.9874 75.6921 42.3592C75.7127 42.3194 75.732 42.2795 75.7457 42.2397C76.0591 41.5387 76.3725 40.8584 76.6996 40.1712C77.0267 39.451 77.3676 38.7432 77.707 38.056C77.7139 38.0367 77.7208 38.023 77.7277 38.0161C77.9805 37.4897 78.2348 36.9826 78.4946 36.4685C78.7076 36.0287 78.922 35.6082 79.1419 35.1807C79.3962 34.6804 79.656 34.187 79.9089 33.6936C80.1755 33.1864 80.449 32.6793 80.7294 32.179C80.9369 31.7914 81.1431 31.3983 81.3575 31.0176C81.6241 30.5242 81.8908 30.0501 82.1643 29.5635C82.5519 28.8832 82.9381 28.2083 83.3325 27.528C83.6322 27.0209 83.9318 26.5137 84.2328 26.0134C84.6135 25.3867 84.9928 24.76 85.3735 24.1387C85.7611 23.512 86.1473 22.8908 86.5349 22.2901C86.9349 21.6565 87.3486 21.0161 87.7554 20.3962C88.1293 19.8286 88.5031 19.2623 88.8824 18.7084C89.2769 18.1202 89.67 17.5402 90.07 16.9671C90.4644 16.3857 90.8644 15.8194 91.2643 15.2587C91.5846 14.7982 91.9048 14.3516 92.2319 13.9104C92.7061 13.2507 93.1858 12.5896 93.6668 11.956C94.0668 11.4158 94.4681 10.8757 94.8749 10.3479C94.9216 10.2874 94.9739 10.2146 95.0275 10.161C95.088 10.0882 95.1677 9.99469 95.2543 9.90123C95.2941 9.86138 95.3354 9.81465 95.3821 9.76792C95.4219 9.72119 95.4687 9.68133 95.5154 9.62773C95.5676 9.57412 95.6212 9.52739 95.6748 9.47379C95.9813 9.13981 96.3222 8.84706 96.6823 8.59967C96.7826 8.51995 96.8829 8.45261 96.9888 8.38664C97.1097 8.29318 97.2362 8.22033 97.3626 8.15299C97.4025 8.12687 97.4437 8.09938 97.4836 8.08564C97.6031 8.0128 97.7227 7.95232 97.8505 7.9001C97.9962 7.81901 98.1502 7.75303 98.3041 7.69256C98.4567 7.62659 98.6106 7.57299 98.7645 7.51938C98.924 7.46578 99.0779 7.41905 99.2373 7.37232C99.2648 7.35858 99.2978 7.34621 99.3239 7.33934C100.745 6.92014 102.025 6.92427 102.983 7.04384Z" fill="#003406"/>
</g>
<path d="M126.166 121.247C124.145 123.47 121.987 125.567 119.707 127.524C111.694 134.406 102.162 139.567 91.6848 142.435C90.7626 142.688 89.8321 142.922 88.8961 143.139C89.9833 142.151 90.4107 140.557 89.9311 139.142C89.784 138.682 89.5366 138.228 89.1834 137.834C89.0226 137.641 88.8494 137.441 88.6831 137.247C88.6762 137.235 88.6694 137.228 88.6556 137.221C88.1361 136.606 87.6221 135.973 87.0943 135.319C86.561 134.666 86.0209 133.972 85.4931 133.25C84.9735 132.551 84.4458 131.81 83.9317 131.055C83.9317 131.055 83.9276 131.053 83.9194 131.048C83.672 130.676 83.4122 130.295 83.1579 129.908C82.8982 129.515 82.6384 129.121 82.3841 128.713C82.3841 128.713 82.3841 128.708 82.3773 128.708C82.1244 128.306 81.8701 127.893 81.631 127.479C81.3767 127.072 81.1238 126.639 80.8764 126.219C80.6304 125.798 80.3899 125.378 80.1562 124.952C79.8964 124.47 79.6422 124.003 79.3961 123.53C79.168 123.089 78.9481 122.643 78.7282 122.215C78.5083 121.768 78.3007 121.341 78.0946 120.908C77.9283 120.567 77.7675 120.214 77.6135 119.88C77.3936 119.38 77.1806 118.886 76.9675 118.4C76.7861 117.965 76.6061 117.545 76.4329 117.124C76.0467 116.17 75.6921 115.243 75.3595 114.316C75.2454 113.989 75.1327 113.669 75.0255 113.342C74.8853 112.949 74.752 112.541 74.6255 112.148C74.352 111.32 74.0977 110.493 73.8641 109.686C73.6703 109.018 73.4903 108.351 73.324 107.69C72.6505 105.075 72.1626 102.573 71.8025 100.264C71.7159 99.7174 71.643 99.1773 71.5688 98.6577C71.5619 98.5698 71.5496 98.4969 71.5427 98.4309C71.5028 98.1561 71.4699 97.8894 71.4424 97.6159C71.4163 97.3891 71.3888 97.1555 71.3627 96.9164C71.3297 96.6483 71.3022 96.3625 71.2761 96.0945C71.2486 95.8209 71.2225 95.5612 71.195 95.3014C71.1482 94.7475 71.1153 94.2266 71.0823 93.7126C71.0809 93.6865 71.0782 93.6604 71.0754 93.6356C70.9118 92.33 69.1278 91.9616 68.4929 93.1532C68.3403 93.4391 68.1864 93.7332 68.0324 94.0273C67.8799 94.327 67.7259 94.6211 67.5734 94.9345C67.1129 95.8622 66.6649 96.816 66.2182 97.8235C66.111 98.0571 66.0052 98.2908 65.9048 98.5299C65.564 99.3174 65.2382 100.119 64.9111 100.946C64.3641 102.36 63.8762 103.735 63.4501 105.075C63.3828 105.282 63.3154 105.495 63.2495 105.703C63.1024 106.17 62.9622 106.624 62.8357 107.077C62.7629 107.337 62.6887 107.604 62.6227 107.865C62.4757 108.391 62.3355 108.912 62.209 109.412C61.1741 113.468 57.1044 115.918 53.0815 115.037C52.9605 115.004 52.8341 114.969 52.7076 114.929C52.687 114.922 52.6747 114.917 52.654 114.917C52.5345 114.877 52.4135 114.843 52.3008 114.817C52.1867 114.784 52.074 114.742 51.96 114.703C51.7937 114.649 51.6329 114.583 51.4734 114.529C51.3538 114.49 51.2398 114.443 51.1271 114.396C51.0858 114.375 51.046 114.363 51.0061 114.336C50.8192 114.256 50.6391 114.176 50.4591 114.09C50.433 114.083 50.3986 114.069 50.3725 114.043C50.3519 114.043 50.3326 114.029 50.312 114.022C50.2186 113.982 50.132 113.929 50.0454 113.882C49.9987 113.863 49.9519 113.835 49.9052 113.802C49.8516 113.782 49.7925 113.749 49.7389 113.716C49.6454 113.669 49.5588 113.622 49.4654 113.576C49.3513 113.508 49.2455 113.449 49.1314 113.375C48.9582 113.275 48.785 113.162 48.6105 113.042C48.4909 112.954 48.3782 112.861 48.2573 112.762C48.1982 112.718 48.1363 112.667 48.0731 112.618L48.069 112.615C48.0484 112.6 48.0264 112.583 48.0044 112.568C47.9302 112.501 47.8504 112.449 47.7776 112.395C47.6965 112.334 47.6237 112.274 47.5508 112.208C43.8605 108.999 42.306 103.681 42.306 96.9892C42.306 96.5755 42.3129 96.1755 42.3266 95.7618C42.3321 95.3949 42.3459 95.0279 42.3665 94.6609C42.3789 94.3998 42.3926 94.1208 42.4132 93.8528C42.4861 92.7258 42.6002 91.5644 42.7403 90.3769C42.7871 89.977 42.8393 89.577 42.8998 89.1826C42.9603 88.7166 43.0331 88.2562 43.1073 87.782C43.1733 87.3615 43.2406 86.9409 43.3135 86.5203C43.3341 86.4269 43.3465 86.321 43.3671 86.2207C43.4399 85.7933 43.521 85.3603 43.6076 84.9329C43.6736 84.5591 43.7478 84.2058 43.8206 83.8389C43.888 83.5255 43.9471 83.219 44.0144 82.9043C44.101 82.5181 44.1876 82.1044 44.2811 81.7099C44.7085 79.8091 45.1951 77.8671 45.7421 75.8865C45.8823 75.3519 46.0293 74.8379 46.1819 74.3046C46.329 73.7906 46.4829 73.2573 46.6423 72.724C46.7633 72.3296 46.8828 71.9228 47.0038 71.5159C47.1495 71.0486 47.2966 70.5813 47.4505 70.0948C47.603 69.6014 47.7639 69.1011 47.9302 68.5871C48.058 68.2064 48.1844 67.8201 48.3109 67.4188C48.4373 67.0395 48.5638 66.6588 48.6985 66.2657C48.8785 65.7242 49.0654 65.1909 49.2579 64.6301C51.6274 57.7925 54.449 50.7129 57.4714 43.7337C57.6982 43.2265 57.9249 42.7001 58.1517 42.1861C58.3785 41.6597 58.6053 41.1456 58.8389 40.6316C60.961 35.8212 63.1697 31.0973 65.3716 26.5274C65.7784 25.6863 66.1921 24.8465 66.5989 24.0054C67.0717 23.0447 67.5459 22.084 68.0201 21.1301C69.1938 18.7607 70.3621 16.453 71.5028 14.2182C71.7296 13.7771 71.9564 13.3304 72.1832 12.8906C73.537 10.2545 74.8592 7.73242 76.1127 5.36431C76.3394 4.93687 76.4728 4.49706 76.5401 4.06275V4.05038C76.76 2.56877 76.0865 1.1009 74.8922 0.266635C74.7712 0.180047 74.6448 0.100332 74.5115 0.0329857C75.097 0.0481042 75.6797 0.0714691 76.2611 0.100332C86.0428 0.59237 95.3106 3.03607 103.686 7.03697C103.858 7.11943 104.03 7.20189 104.202 7.28573C103.903 7.20327 103.488 7.10706 102.983 7.04384C102.025 6.92427 100.745 6.92014 99.3239 7.33934C99.2977 7.34621 99.2648 7.35858 99.2373 7.37232C99.0778 7.41905 98.9239 7.46578 98.7645 7.51938C98.6105 7.57299 98.4566 7.62659 98.304 7.69256C98.1501 7.75303 97.9962 7.819 97.8505 7.90009C97.7227 7.95232 97.6031 8.0128 97.4835 8.08564C97.4437 8.09938 97.4024 8.12687 97.3626 8.15299C97.2361 8.22033 97.1097 8.29318 96.9887 8.38663C96.8829 8.45261 96.7826 8.51995 96.6822 8.59967C96.3221 8.84706 95.9813 9.13981 95.6748 9.47379C95.6212 9.52739 95.5676 9.57412 95.5154 9.62773C95.4686 9.68133 95.4219 9.72118 95.382 9.76791C95.3353 9.81464 95.2941 9.86137 95.2542 9.90123C95.1676 9.99469 95.0879 10.0882 95.0274 10.161C94.9738 10.2146 94.9216 10.2874 94.8749 10.3479C94.468 10.8757 94.0667 11.4158 93.6668 11.956C93.1857 12.5896 92.706 13.2507 92.2319 13.9104C91.9047 14.3516 91.5845 14.7982 91.2643 15.2587C90.8643 15.8194 90.4644 16.3857 90.0699 16.9671C89.6699 17.5402 89.2769 18.1202 88.8824 18.7084C88.5031 19.2623 88.1292 19.8286 87.7554 20.3962C87.3485 21.0161 86.9348 21.6565 86.5349 22.2901C86.1473 22.8908 85.7611 23.512 85.3735 24.1387C84.9928 24.76 84.6134 25.3867 84.2327 26.0134C83.9317 26.5137 83.6321 27.0209 83.3325 27.528C82.938 28.2083 82.5518 28.8832 82.1642 29.5635C81.8907 30.05 81.6241 30.5242 81.3574 31.0176C81.143 31.3983 80.9369 31.7914 80.7293 32.179C80.449 32.6793 80.1754 33.1864 79.9088 33.6936C79.6559 34.187 79.3961 34.6804 79.1419 35.1807C78.922 35.6082 78.7076 36.0287 78.4945 36.4685C78.2348 36.9826 77.9805 37.4897 77.7276 38.0161C77.7207 38.023 77.7139 38.0367 77.707 38.056C77.3675 38.7432 77.0266 39.451 76.6995 40.1712C76.3724 40.8584 76.059 41.5387 75.7457 42.2397C75.7319 42.2795 75.7127 42.3194 75.6921 42.3592C75.4117 42.9873 75.1327 43.621 74.8592 44.2752C73.291 47.8775 71.8423 51.6406 70.5284 55.5371C70.369 55.9906 70.2219 56.4442 70.0748 56.8977C69.9814 57.1712 69.8879 57.4585 69.8013 57.7389C69.6542 58.1993 69.5072 58.6652 69.3615 59.1256C69.2612 59.4527 69.1608 59.773 69.0742 60.0863C68.9409 60.5 68.82 60.9137 68.7004 61.3274C68.574 61.7549 68.4461 62.2016 68.3266 62.6359C68.2139 63.0358 68.0998 63.4289 67.9994 63.8371C67.3521 66.1777 66.7652 68.5733 66.2319 71.0088C66.2182 71.0761 66.2045 71.1352 66.1921 71.1957C66.1316 71.5091 66.1577 71.8032 66.2581 72.0492C66.3323 72.3035 66.4725 72.5096 66.6525 72.6773C66.6992 72.724 66.7515 72.7708 66.8051 72.8106C66.8587 72.8642 66.9123 72.8903 66.9728 72.9302C67.1184 73.0305 67.2861 73.091 67.4524 73.1377C67.5528 73.1707 67.6462 73.1776 67.7466 73.1968C67.8029 73.1996 67.8606 73.2023 67.917 73.1996C67.9802 73.1996 68.0448 73.1954 68.1067 73.1845C68.1671 73.1776 68.2194 73.1776 68.273 73.1638C68.4929 73.1171 68.7004 73.0168 68.8873 72.8835C68.9272 72.8505 68.9602 72.8299 68.9945 72.7969C69.0468 72.757 69.0935 72.7103 69.1402 72.6567C69.2076 72.5838 69.268 72.5096 69.3203 72.423L69.3271 72.4162C69.5141 72.1303 69.7079 71.8362 69.9085 71.5489C70.0611 71.3084 70.2288 71.0816 70.3951 70.8493C70.5751 70.5882 70.7689 70.3353 70.9627 70.0742C71.1029 69.8818 71.2554 69.6742 71.4163 69.4681C71.4286 69.4543 71.4424 69.4337 71.4561 69.4213C71.4822 69.3815 71.5152 69.3402 71.5427 69.3004C71.676 69.1341 71.8162 68.954 71.9633 68.7809C71.9633 68.7717 71.9656 68.7648 71.9701 68.7602C72.3371 68.2998 72.7165 67.8463 73.1109 67.3858C73.2511 67.2264 73.3913 67.0725 73.5301 66.9117C73.9782 66.4059 74.451 65.9042 74.9389 65.4039C75.0447 65.2981 75.1451 65.1909 75.2591 65.0837C75.3127 65.0315 75.365 64.9641 75.4254 64.9174C75.479 64.8638 75.5326 64.8033 75.5931 64.7566L75.6124 64.7373C75.6454 64.6975 75.6852 64.6576 75.7264 64.6233C75.7594 64.5834 75.7924 64.5573 75.8323 64.5243C75.9134 64.4432 75.9931 64.3704 76.0797 64.2907C76.5126 63.8701 76.9675 63.4564 77.4403 63.0427L77.461 63.0221C77.5805 62.9231 77.6946 62.8228 77.8142 62.7156C77.9283 62.6153 78.0478 62.5149 78.1743 62.416C78.4148 62.2084 78.6553 62.0091 78.9082 61.8222C79.4016 61.4209 79.9157 61.0416 80.4434 60.6609C80.6565 60.5 80.8764 60.3406 81.0963 60.2004C81.1829 60.1276 81.2764 60.074 81.3698 59.9998C81.5966 59.8541 81.8302 59.7001 82.0639 59.5393C82.3443 59.3593 82.6247 59.1724 82.9119 58.9992C83.7586 58.4797 84.5997 57.9986 85.434 57.5657C85.8078 57.3719 86.1748 57.185 86.5418 57.0049C86.9142 56.818 87.2881 56.6448 87.655 56.484C88.2831 56.1968 88.9099 55.9233 89.5229 55.6896C89.5641 55.6704 89.604 55.6635 89.6507 55.6635C90.4163 55.5824 93.6613 55.3543 96.8472 57.3087C96.6726 57.2331 96.4981 57.163 96.3263 57.0998C96.9447 57.442 97.566 57.8626 98.1707 58.3793C98.5102 58.6652 98.8181 58.9662 99.0971 59.2796C99.2442 59.4266 99.3775 59.5806 99.5108 59.7469C99.651 59.9132 99.7843 60.0809 99.9052 60.254C101.773 62.8352 100.352 66.465 97.3227 67.2058C97.21 67.2264 97.0959 67.2525 96.9832 67.2663C96.9489 67.2786 96.9159 67.2786 96.8829 67.2855C96.8554 67.2924 96.8293 67.2924 96.7963 67.2992C96.5627 67.3322 96.3153 67.3721 96.0624 67.4188C95.6679 67.4862 95.268 67.559 94.8543 67.6593C94.7072 67.6923 94.5478 67.7198 94.3938 67.7597C94.3141 67.7803 94.2344 67.7995 94.1533 67.8201C93.2324 68.04 92.2662 68.3204 91.278 68.6805C91.0787 68.7534 90.8712 68.8345 90.665 68.9142C90.6059 68.9362 90.5468 68.9595 90.4877 68.9856C90.4589 68.9953 90.4314 69.0076 90.4039 69.02C90.2774 69.0667 90.1441 69.1135 90.0245 69.1671C89.6906 69.3004 89.3634 69.4474 89.0295 69.5945L88.5292 69.8419C88.1952 70.0013 87.8694 70.1745 87.5286 70.3477C86.4139 70.9483 85.3996 71.5888 84.4733 72.2499C84.2052 72.4368 83.9523 72.6374 83.705 72.823C83.3655 73.0841 83.0452 73.3439 82.7319 73.5913C82.4707 73.8112 82.2178 74.0448 81.9704 74.2579C81.4633 74.7183 80.9905 75.1787 80.5493 75.6323C80.1232 76.0666 79.7288 76.5064 79.3824 76.927C78.6155 77.8148 77.9942 78.6615 77.5146 79.3693C77.3139 79.662 77.1338 79.9287 76.9868 80.1692C76.9799 80.1761 76.973 80.1829 76.9675 80.1898C76.9469 80.2228 76.9332 80.2558 76.9263 80.2888C76.9071 80.3492 76.9002 80.4166 76.9139 80.4757C76.9139 80.4963 76.9208 80.5032 76.9208 80.5169C77.1668 81.8845 77.4403 83.2245 77.7276 84.5522C78.0877 86.1671 78.4876 87.7559 78.922 89.2829C79.069 89.823 79.2216 90.3577 79.3755 90.8772C79.5556 91.4778 79.7356 92.0716 79.9294 92.6529C79.9954 92.866 80.0627 93.0721 80.1287 93.2797C80.3569 93.9531 80.5836 94.6142 80.8159 95.2739C80.8228 95.2739 80.8297 95.2877 80.8297 95.3014C80.8365 95.3152 80.8434 95.3275 80.8503 95.3481C80.8572 95.3605 80.8627 95.3605 80.8627 95.3674C81.1307 96.1151 81.4097 96.8627 81.69 97.5829C81.7643 97.7561 81.8302 97.9293 81.8976 98.1038C81.9636 98.277 82.0378 98.4502 82.1038 98.6234C82.2508 98.9835 82.4047 99.3449 82.5518 99.6982C82.5642 99.7243 82.5779 99.7518 82.5917 99.7779C83.2651 101.365 83.9785 102.887 84.733 104.348C84.9804 104.829 85.2264 105.289 85.4807 105.75C85.9879 106.704 86.5143 107.617 87.0613 108.505C87.0682 108.518 87.0682 108.525 87.075 108.531C87.6152 109.419 88.1622 110.287 88.7367 111.121C89.8843 112.788 91.0787 114.342 92.313 115.791C92.706 116.252 93.1197 116.711 93.5334 117.159C93.5403 117.165 93.5472 117.165 93.5472 117.171C93.9664 117.619 94.3869 118.045 94.8075 118.459C95.1154 118.763 95.4246 119.058 95.7353 119.347C95.7394 119.351 95.7421 119.354 95.7463 119.358C97.5797 121.055 99.4737 122.486 101.392 123.629C102.067 124.031 102.748 124.384 103.421 124.718H103.428C103.881 124.931 104.335 125.138 104.789 125.331C107.458 126.419 110.153 126.96 112.801 126.885C115.358 126.806 120.234 126.112 126.166 121.247Z" fill="#FFF0FB"/>
<path d="M77.4403 63.0427C76.9675 63.4564 76.5126 63.8701 76.0797 64.2907C75.9931 64.3704 75.9134 64.4432 75.8323 64.5243C75.8391 64.5037 75.846 64.5037 75.8529 64.4968C75.9326 64.4171 76.0123 64.3374 76.0989 64.2563C76.5264 63.8426 76.973 63.4358 77.4403 63.0427Z" fill="white"/>
</g>
<defs>
<clipPath id="clip0_2052_45">
<rect width="145" height="145" fill="white"/>
</clipPath>
</defs>
</svg>
