<svg width="191" height="67" viewBox="0 0 191 67" fill="none" xmlns="http://www.w3.org/2000/svg">
<path d="M8.92773 39H4.5332V26.6953C4.5332 20.8359 7.69727 17.9062 14.0254 17.9062C20.3535 17.9062 23.5176 20.8359 23.5176 26.6953V39H19.123V26.6953C19.123 23.1797 17.4238 21.4219 14.0254 21.4219C10.627 21.4219 8.92773 23.1797 8.92773 26.6953V39ZM23.5176 12.6328V16.1484H4.5332V12.6328H23.5176ZM18.6133 43.9219H11.7402C11.1543 43.9219 10.8613 44.0977 10.8613 44.4492C10.8613 44.8008 11.1543 44.9766 11.7402 44.9766H18.6133V43.9219ZM22.252 47.8418C22.5566 47.8418 22.7617 47.8008 22.8672 47.7188C22.9727 47.6484 23.0254 47.5605 23.0254 47.4551C23.0254 47.3379 22.9609 47.25 22.832 47.1914C22.7031 47.1445 22.5098 47.1094 22.252 47.0859H21.7773C21.7773 47.5898 21.9355 47.8418 22.252 47.8418ZM21.7773 41.1094H24.3965V43.9219H21.7773V44.9766H22.8848C23.7285 44.9766 24.3438 45.1816 24.7305 45.5918C25.1055 46.002 25.293 46.6289 25.293 47.4727C25.293 48.3281 25.0879 48.9434 24.6777 49.3184C24.2676 49.7051 23.5352 49.8984 22.4805 49.8984C19.9023 49.8984 18.6133 49.2246 18.6133 47.877V47.6133H10.334C8.57617 47.6133 7.69727 46.5293 7.69727 44.3613C7.69727 42.1934 8.58203 41.1094 10.3516 41.1094H18.6133V39.8789H21.7773V41.1094ZM23.5176 51.3047V60.0938H19.123V51.3047H23.5176ZM33.1855 26.1855C32.8223 26.1855 32.582 26.2676 32.4648 26.4316C32.3594 26.584 32.3066 26.8301 32.3066 27.1699C32.3066 27.5215 32.3594 27.7734 32.4648 27.9258C32.582 28.0781 32.8223 28.166 33.1855 28.1895V26.1855ZM36.7012 34.4121L41.7988 29.7891L46.8965 34.4121V24.0586C46.8965 22.6523 46.2109 21.4395 44.8398 20.4199C44.1484 21.0879 42.4902 21.4219 39.8652 21.4219C37.0527 21.4219 35.0898 21.0527 33.9766 20.3145C32.8633 19.5762 32.3066 18.3926 32.3066 16.7637C32.3066 15.6855 32.541 14.7832 33.0098 14.0566C33.4785 13.3184 33.7129 12.5801 33.7129 11.8418C33.7129 11.1973 32.9512 10.875 31.4277 10.875V7.35938C35.6465 7.35938 37.7559 8.47266 37.7559 10.6992C37.7559 11.4844 37.5215 12.4219 37.0527 13.5117C36.584 14.5898 36.3496 15.4043 36.3496 15.9551C36.3496 16.5645 36.5898 17.0449 37.0703 17.3965C37.5625 17.7363 38.5352 17.9062 39.9883 17.9062C41.2422 17.9062 42.1797 17.7246 42.8008 17.3613C42.0156 16.7168 41.623 15.9609 41.623 15.0938C41.623 13.4531 42.9121 12.6328 45.4902 12.6328C48.1855 12.6328 49.5332 13.6289 49.5332 15.6211C49.5332 16.5 48.9824 17.3672 47.8809 18.2227C50.1543 19.875 51.291 21.5273 51.291 23.1797V39H46.5801L41.7988 34.2188L37.0176 39H32.3066V31.1953C31.416 31.125 30.7539 30.7793 30.3203 30.1582C29.8867 29.5254 29.6699 28.5176 29.6699 27.1348C29.6699 25.752 29.8867 24.75 30.3203 24.1289C30.7539 23.4961 31.709 23.1797 33.1855 23.1797C34.6621 23.1797 35.6172 23.4961 36.0508 24.1289C36.4844 24.75 36.7012 25.752 36.7012 27.1348V34.4121ZM45.4551 16.5176L46 16.1309C46.1992 15.9668 46.2988 15.8086 46.2988 15.6562C46.2988 15.293 46.0527 15.1113 45.5605 15.1113C45.0918 15.1113 44.8574 15.2578 44.8574 15.5508C44.8574 15.7148 44.9277 15.8555 45.0684 15.9727L45.4551 16.5176ZM64.4746 19.6641V43.3945C64.4746 45.7383 65.9395 46.9102 68.8691 46.9102C71.7988 46.9102 73.2637 45.7383 73.2637 43.3945V40.7578H77.6582V43.3945C77.6582 48.082 74.7285 50.4258 68.8691 50.4258C63.0098 50.4258 60.0801 48.082 60.0801 43.3945V19.6641C60.0801 18.7031 59.4941 17.7539 58.3223 16.8164V15.2695C58.3223 13.5117 59.4355 12.6328 61.6621 12.6328H65.3535V16.1484H62.3652V16.3594C63.7715 17.2969 64.4746 18.3984 64.4746 19.6641ZM76.7793 35.9941C77.1426 35.9941 77.377 35.918 77.4824 35.7656C77.5996 35.6016 77.6582 35.3496 77.6582 35.0098C77.6582 34.6582 77.5996 34.4062 77.4824 34.2539C77.377 34.1016 77.1426 34.0137 76.7793 33.9902V35.9941ZM73.2637 26.6953C73.2637 23.1797 74.3828 20.7012 76.6211 19.2598C75.9648 18.1699 75.1387 17.3613 74.1426 16.834V15.2695C74.1426 13.5117 75.2559 12.6328 77.4824 12.6328H87.8535V16.1484H78.5371V16.3418C79.4629 16.8457 80.1191 17.3906 80.5059 17.9766C80.7637 17.9297 81.3262 17.9062 82.1934 17.9062C88.1348 17.9062 91.1055 20.8359 91.1055 26.6953V30.2109C91.1055 33.7266 92.7168 35.4844 95.9395 35.4844C98.752 35.4844 100.158 33.7266 100.158 30.2109V19.6641C100.158 18.7031 99.5723 17.7539 98.4004 16.8164V15.2695C98.4004 13.5117 99.5137 12.6328 101.74 12.6328H105.432V16.1484H102.443V16.3594C103.85 17.2969 104.553 18.3984 104.553 19.6641V30.2109C104.553 36.0703 101.682 39 95.9395 39C89.7871 39 86.7109 36.0703 86.7109 30.2109V26.6953C86.7109 23.1797 85.2051 21.4219 82.1934 21.4219C79.1699 21.4219 77.6582 23.1797 77.6582 26.6953V30.9844C78.5488 31.0547 79.2109 31.4062 79.6445 32.0391C80.0781 32.6602 80.2949 33.6621 80.2949 35.0449C80.2949 36.1934 79.9902 37.1426 79.3809 37.8926C78.7715 38.6309 77.9043 39 76.7793 39C75.6543 39 74.7871 38.6602 74.1777 37.9805C73.5684 37.2891 73.2637 36.3105 73.2637 35.0449V26.6953ZM104.553 40.7578V50.4258H100.158V40.7578H104.553ZM117.736 39H113.342V26.6953C113.342 20.8359 116.506 17.9062 122.834 17.9062C129.162 17.9062 132.326 20.8359 132.326 26.6953V39H127.932V26.6953C127.932 23.1797 126.232 21.4219 122.834 21.4219C119.436 21.4219 117.736 23.1797 117.736 26.6953V39ZM132.326 12.6328V16.1484H113.342V12.6328H132.326ZM145.334 34.2539C145.229 34.1016 144.994 34.0137 144.631 33.9902V35.9941C144.994 35.9941 145.229 35.918 145.334 35.7656C145.451 35.6016 145.51 35.3496 145.51 35.0098C145.51 34.6582 145.451 34.4062 145.334 34.2539ZM145.51 30.9844C146.4 31.0547 147.062 31.4062 147.496 32.0391C147.93 32.6602 148.146 33.6621 148.146 35.0449C148.146 36.4277 147.842 37.4355 147.232 38.0684C146.623 38.6895 145.756 39 144.631 39C143.506 39 142.639 38.6895 142.029 38.0684C141.42 37.4355 141.115 36.4277 141.115 35.0449V19.6641C141.115 18.7031 140.529 17.7539 139.357 16.8164V15.2695C139.357 13.5117 140.471 12.6328 142.697 12.6328H146.389V16.1484H143.4V16.3594C144.807 17.2969 145.51 18.3984 145.51 19.6641V30.9844ZM142.697 7.88672C143.459 7.88672 143.84 7.41797 143.84 6.48047C143.84 4.37109 142.99 3.31641 141.291 3.31641C140.236 3.31641 139.445 3.55078 138.918 4.01953L138.039 1.38281C138.801 0.679688 139.885 0.328125 141.291 0.328125C144.982 0.328125 146.828 2.37891 146.828 6.48047C146.828 9.41016 145.275 10.875 142.17 10.875C139.416 10.875 138.039 9.71484 138.039 7.39453C138.039 6.42188 138.256 5.73633 138.689 5.33789C139.135 4.92773 140.084 4.72266 141.537 4.72266V7.00781C141.197 7.00781 141.027 7.1543 141.027 7.44727C141.027 7.74023 141.584 7.88672 142.697 7.88672ZM154.299 27.5039C164.025 25.8633 168.889 23.25 168.889 19.6641C168.889 17.3203 167.189 16.1484 163.791 16.1484C160.393 16.1484 158.693 17.3203 158.693 19.6641C158.693 21.082 159.01 21.791 159.643 21.791C160.041 21.791 160.955 21.5801 162.385 21.1582V23.8477C161.74 24.3281 160.908 24.5684 159.889 24.5684C156.162 24.5684 154.299 22.9336 154.299 19.6641C154.299 14.9766 157.463 12.6328 163.791 12.6328C170.119 12.6328 173.283 14.9766 173.283 19.6641C173.283 24.5039 168.42 27.9785 158.693 30.0879V31.9688C158.693 34.3125 160.393 35.4844 163.791 35.4844C167.189 35.4844 168.889 34.3125 168.889 31.9688C168.889 30.0938 168.203 28.8574 166.832 28.2598L170.137 26.502C172.234 27.9316 173.283 29.7539 173.283 31.9688C173.283 36.6562 170.119 39 163.791 39C157.463 39 154.299 36.6562 154.299 31.9688V27.5039ZM170.646 46.0312C170.646 46.4648 170.781 46.6816 171.051 46.6816C171.332 46.6816 171.52 46.6465 171.613 46.5762C171.695 46.5176 171.736 46.4414 171.736 46.3477C171.736 46.2539 171.684 46.1777 171.578 46.1191C171.461 46.0723 171.285 46.043 171.051 46.0312H170.646ZM170.646 42.8672H171.227C172.07 42.8672 172.773 43.1309 173.336 43.6582C173.887 44.1855 174.162 45.0176 174.162 46.1543C174.162 47.0684 173.898 47.7715 173.371 48.2637C172.844 48.7676 172.053 49.0195 170.998 49.0195C168.303 49.0195 166.955 48.1113 166.955 46.2949V46.0312H163.176C160.984 46.0312 158.787 45.3281 156.584 43.9219L157.463 40.582C159.373 42.1055 161.277 42.8672 163.176 42.8672H166.955V40.7578H170.646V42.8672ZM182.951 33.9902C182.588 34.0137 182.348 34.1016 182.23 34.2539C182.125 34.4062 182.072 34.6582 182.072 35.0098C182.072 35.3496 182.125 35.6016 182.23 35.7656C182.348 35.918 182.588 35.9941 182.951 35.9941V33.9902ZM182.072 19.6641C182.072 18.7031 181.486 17.7539 180.314 16.8164V15.2695C180.314 13.5117 181.428 12.6328 183.654 12.6328H187.346V16.1484H184.357V16.3594C185.764 17.2969 186.467 18.3984 186.467 19.6641V35.0449C186.467 36.4277 186.162 37.4355 185.553 38.0684C184.943 38.6895 184.076 39 182.951 39C181.826 39 180.959 38.6895 180.35 38.0684C179.74 37.4355 179.436 36.4277 179.436 35.0449C179.436 33.6621 179.652 32.6602 180.086 32.0391C180.52 31.4062 181.182 31.0547 182.072 30.9844V19.6641Z" fill="#BB006A"/>
<path d="M52.3155 63H49.7355L46.9305 58.485L45.9705 59.175V63H43.7055V52.29H45.9705V57.195C46.1205 56.985 46.2705 56.775 46.4205 56.565C46.5705 56.355 46.7205 56.145 46.8705 55.935L49.7655 52.29H52.2855L48.5505 57.03L52.3155 63ZM62.4414 63H60.1764V58.38H55.9314V63H53.6664V52.29H55.9314V56.49H60.1764V52.29H62.4414V63ZM69.6661 63L67.0861 54.6H67.0261C67.0361 54.8 67.0511 55.1 67.0711 55.5C67.0911 55.9 67.1111 56.33 67.1311 56.79C67.1511 57.24 67.1611 57.65 67.1611 58.02V63H65.1361V52.29H68.2261L70.7611 60.48H70.8061L73.4911 52.29H76.5811V63H74.4661V57.93C74.4661 57.59 74.4711 57.2 74.4811 56.76C74.5011 56.32 74.5161 55.905 74.5261 55.515C74.5461 55.115 74.5611 54.815 74.5711 54.615H74.5111L71.7511 63H69.6661ZM85.4515 63H79.2865V52.29H85.4515V54.15H81.5515V56.505H85.1815V58.365H81.5515V61.125H85.4515V63ZM90.8001 52.29C91.7701 52.29 92.5701 52.41 93.2001 52.65C93.8301 52.88 94.3001 53.235 94.6101 53.715C94.9201 54.185 95.0751 54.78 95.0751 55.5C95.0751 55.99 94.9801 56.42 94.7901 56.79C94.6101 57.15 94.3651 57.46 94.0551 57.72C93.7551 57.97 93.4301 58.175 93.0801 58.335L96.2301 63H93.7101L91.1601 58.89H89.9451V63H87.6801V52.29H90.8001ZM90.6351 54.15H89.9451V57.045H90.6801C91.1801 57.045 91.5851 56.99 91.8951 56.88C92.2051 56.77 92.4301 56.605 92.5701 56.385C92.7101 56.155 92.7801 55.88 92.7801 55.56C92.7801 55.22 92.7001 54.95 92.5401 54.75C92.3901 54.54 92.1551 54.39 91.8351 54.3C91.5251 54.2 91.1251 54.15 90.6351 54.15ZM101.479 63V52.29H103.744V61.125H108.094V63H101.479ZM119.387 57.63C119.387 58.46 119.282 59.215 119.072 59.895C118.872 60.565 118.562 61.145 118.142 61.635C117.732 62.125 117.202 62.5 116.552 62.76C115.912 63.02 115.157 63.15 114.287 63.15C113.417 63.15 112.657 63.02 112.007 62.76C111.367 62.49 110.837 62.115 110.417 61.635C110.007 61.145 109.697 60.56 109.487 59.88C109.287 59.2 109.187 58.445 109.187 57.615C109.187 56.505 109.367 55.54 109.727 54.72C110.097 53.9 110.657 53.265 111.407 52.815C112.167 52.355 113.132 52.125 114.302 52.125C115.462 52.125 116.417 52.355 117.167 52.815C117.917 53.265 118.472 53.905 118.832 54.735C119.202 55.555 119.387 56.52 119.387 57.63ZM111.572 57.63C111.572 58.38 111.667 59.025 111.857 59.565C112.047 60.105 112.342 60.52 112.742 60.81C113.142 61.1 113.657 61.245 114.287 61.245C114.937 61.245 115.457 61.1 115.847 60.81C116.247 60.52 116.537 60.105 116.717 59.565C116.907 59.025 117.002 58.38 117.002 57.63C117.002 56.5 116.792 55.615 116.372 54.975C115.952 54.335 115.262 54.015 114.302 54.015C113.662 54.015 113.142 54.16 112.742 54.45C112.342 54.74 112.047 55.155 111.857 55.695C111.667 56.235 111.572 56.88 111.572 57.63ZM126.151 54.03C125.721 54.03 125.336 54.115 124.996 54.285C124.666 54.455 124.386 54.7 124.156 55.02C123.926 55.33 123.751 55.71 123.631 56.16C123.521 56.61 123.466 57.115 123.466 57.675C123.466 58.435 123.556 59.085 123.736 59.625C123.926 60.155 124.221 60.56 124.621 60.84C125.021 61.12 125.531 61.26 126.151 61.26C126.591 61.26 127.026 61.21 127.456 61.11C127.896 61.01 128.371 60.87 128.881 60.69V62.595C128.411 62.785 127.946 62.925 127.486 63.015C127.026 63.105 126.511 63.15 125.941 63.15C124.841 63.15 123.931 62.925 123.211 62.475C122.501 62.015 121.976 61.375 121.636 60.555C121.296 59.725 121.126 58.76 121.126 57.66C121.126 56.85 121.236 56.11 121.456 55.44C121.676 54.76 121.996 54.175 122.416 53.685C122.846 53.195 123.371 52.815 123.991 52.545C124.621 52.275 125.341 52.14 126.151 52.14C126.681 52.14 127.211 52.21 127.741 52.35C128.281 52.48 128.796 52.66 129.286 52.89L128.551 54.735C128.151 54.545 127.746 54.38 127.336 54.24C126.936 54.1 126.541 54.03 126.151 54.03ZM137.712 63L136.932 60.45H133.032L132.252 63H129.807L133.587 52.245H136.362L140.157 63H137.712ZM135.612 56.055C135.562 55.885 135.497 55.67 135.417 55.41C135.337 55.15 135.257 54.885 135.177 54.615C135.097 54.345 135.032 54.11 134.982 53.91C134.932 54.11 134.862 54.36 134.772 54.66C134.692 54.95 134.612 55.23 134.532 55.5C134.462 55.76 134.407 55.945 134.367 56.055L133.602 58.545H136.392L135.612 56.055ZM141.513 63V52.29H143.778V61.125H148.128V63H141.513Z" fill="#FF0068"/>
<rect x="152" y="61" width="37" height="2" rx="1" fill="#FF0068"/>
<rect x="2" y="61" width="37" height="2" rx="1" fill="#FF0068"/>
</svg>
