<svg width="187" height="61" viewBox="0 0 187 61" fill="none" xmlns="http://www.w3.org/2000/svg">
<path d="M15.9997 24.504C15.9997 22.32 16.7917 20.64 18.3757 19.464C19.9597 18.264 22.1437 17.664 24.9277 17.664C27.6877 17.664 29.8477 18.264 31.4077 19.464C32.9917 20.64 33.7837 22.32 33.7837 24.504V33H27.6637V24.504C27.6637 23.688 27.4117 23.064 26.9077 22.632C26.4037 22.2 25.7317 21.984 24.8917 21.984C24.0757 21.984 23.4037 22.2 22.8757 22.632C22.3717 23.064 22.1197 23.688 22.1197 24.504V33H15.9997V24.504ZM15.8557 15.792V11.184H33.9277V15.792H15.8557ZM20.9131 42.504C19.5211 42.504 18.4171 42.156 17.6011 41.46C16.7851 40.788 16.3771 39.864 16.3771 38.688C16.3771 37.416 16.8331 36.444 17.7451 35.772C18.6331 35.124 19.8811 34.8 21.4891 34.8H33.1531V37.104H31.6411V38.292C32.0011 38.364 32.3131 38.496 32.5771 38.688C32.9611 39.024 33.1531 39.54 33.1531 40.236C33.1531 41.028 32.9011 41.604 32.3971 41.964C31.8691 42.324 31.0291 42.504 29.8771 42.504C28.7011 42.504 27.8611 42.336 27.3571 42C26.9731 41.76 26.7331 41.436 26.6371 41.028C26.3251 41.052 26.0011 41.124 25.6651 41.244C25.2811 41.388 24.8611 41.556 24.4051 41.748C23.9491 41.964 23.4331 42.144 22.8571 42.288C22.2811 42.432 21.6331 42.504 20.9131 42.504ZM26.6011 37.104H23.2531C22.7731 37.104 22.4011 37.212 22.1371 37.428C21.8491 37.644 21.7051 37.956 21.7051 38.364C21.7051 38.748 21.8251 39.036 22.0651 39.228C22.3051 39.444 22.6171 39.552 23.0011 39.552C23.2891 39.552 23.6011 39.492 23.9371 39.372C24.2491 39.276 24.5731 39.156 24.9091 39.012C25.2451 38.892 25.5691 38.772 25.8811 38.652C26.1211 38.58 26.3611 38.532 26.6011 38.508V37.104ZM30.7771 41.1C31.0411 41.1 31.2571 41.028 31.4251 40.884C31.5691 40.764 31.6411 40.584 31.6411 40.344C31.6411 40.104 31.5691 39.912 31.4251 39.768C31.2571 39.648 31.0411 39.588 30.7771 39.588V41.1ZM26.9411 49.488V44.088H32.2691V49.488H26.9411ZM39.3091 33V25.368H37.6171V21.768H45.4291V27.6L48.1651 24.972L50.9371 27.6V20.616C50.9371 20.208 50.8771 19.836 50.7571 19.5C50.7091 19.356 50.5771 19.2 50.3611 19.032C49.8811 19.248 49.3411 19.452 48.7411 19.644C47.7571 19.932 46.6171 20.076 45.3211 20.076C43.3771 20.076 41.8531 19.8 40.7491 19.248C39.6451 18.672 39.0931 17.82 39.0931 16.692C39.0931 16.164 39.1771 15.636 39.3451 15.108C39.5131 14.58 39.5971 14.172 39.5971 13.884C39.5971 13.668 39.5371 13.536 39.4171 13.488C39.2971 13.44 39.1411 13.416 38.9491 13.416H38.3371V10.176H42.1171C43.2211 10.176 44.0131 10.38 44.4931 10.788C44.9971 11.172 45.2491 11.772 45.2491 12.588C45.2491 13.188 45.1651 13.692 44.9971 14.1C44.8291 14.484 44.7451 14.88 44.7451 15.288C44.7451 15.768 44.9131 16.152 45.2491 16.44C45.6091 16.728 46.0891 16.872 46.6891 16.872C47.3371 16.872 47.9251 16.716 48.4531 16.404C47.9491 15.828 47.6971 15.132 47.6971 14.316C47.6971 13.26 48.0691 12.444 48.8131 11.868C49.5571 11.268 50.5891 10.968 51.9091 10.968C53.2531 10.968 54.2851 11.268 55.0051 11.868C55.7491 12.444 56.1211 13.26 56.1211 14.316C56.1211 15.084 55.9291 15.72 55.5451 16.224C55.3291 16.488 55.0891 16.728 54.8251 16.944C55.6171 17.328 56.1571 17.76 56.4451 18.24C56.8531 18.888 57.0571 19.68 57.0571 20.616V33H51.4411L48.1651 29.724L44.9251 33H39.3091ZM51.9091 15.288C52.1731 15.288 52.3771 15.204 52.5211 15.036C52.6891 14.868 52.7731 14.652 52.7731 14.388C52.7731 14.124 52.6891 13.908 52.5211 13.74C52.3771 13.572 52.1731 13.488 51.9091 13.488C51.6691 13.488 51.4651 13.572 51.2971 13.74C51.1291 13.908 51.0451 14.124 51.0451 14.388C51.0451 14.652 51.1291 14.868 51.2971 15.036C51.4651 15.204 51.6691 15.288 51.9091 15.288ZM70.6643 42.648C67.8803 42.648 65.7083 42.048 64.1483 40.848C62.5883 39.672 61.8083 37.992 61.8083 35.808V19.752C61.8083 19.128 61.7003 18.672 61.4843 18.384C61.2923 18.072 61.0163 17.844 60.6563 17.7V15.072C60.6563 13.8 60.9683 12.84 61.5923 12.192C62.2163 11.52 63.1403 11.184 64.3643 11.184H68.1443V15.792H66.4163C65.9843 15.792 65.7683 16.032 65.7683 16.512V16.872C66.5363 17.16 67.0883 17.532 67.4243 17.988C67.7603 18.42 67.9283 19.056 67.9283 19.896V35.808C67.9283 36.6 68.1683 37.212 68.6483 37.644C69.1283 38.1 69.8003 38.328 70.6643 38.328C71.5283 38.328 72.2003 38.1 72.6803 37.644C73.1603 37.212 73.4003 36.6 73.4003 35.808V34.8H79.5203V35.808C79.5203 37.992 78.7403 39.672 77.1803 40.848C75.6203 42.048 73.4483 42.648 70.6643 42.648ZM93.5698 33.36C90.8098 33.36 88.6618 32.772 87.1258 31.596C85.6138 30.396 84.8578 28.704 84.8578 26.52V23.928C84.8578 23.184 84.6178 22.608 84.1378 22.2C83.6578 21.768 83.0098 21.552 82.1938 21.552C81.3778 21.552 80.7298 21.768 80.2498 22.2C79.7698 22.608 79.5298 23.184 79.5298 23.928V26.736C80.2258 26.856 80.7898 27.096 81.2218 27.456C81.7978 27.984 82.0858 28.788 82.0858 29.868C82.0858 30.972 81.7378 31.812 81.0418 32.388C80.3698 32.94 79.2778 33.216 77.7658 33.216C76.2778 33.216 75.1738 33.012 74.4538 32.604C73.7578 32.196 73.4098 31.584 73.4098 30.768V23.928C73.4098 21.816 74.1898 20.184 75.7498 19.032C75.8458 18.96 75.9538 18.876 76.0738 18.78L74.5258 17.34V15.072C74.5258 13.8 74.8378 12.84 75.4618 12.192C76.1098 11.52 77.0578 11.184 78.3058 11.184H88.7818V15.792H80.3218C80.1298 15.792 79.9618 15.852 79.8178 15.972C79.6978 16.092 79.6378 16.272 79.6378 16.512V16.872L80.2498 17.412C80.8498 17.34 81.4978 17.304 82.1938 17.304C84.9538 17.304 87.1018 17.88 88.6378 19.032C90.1978 20.184 90.9778 21.816 90.9778 23.928V26.52C90.9778 27.312 91.2058 27.936 91.6618 28.392C92.1178 28.824 92.7538 29.04 93.5698 29.04C94.3858 29.04 95.0218 28.824 95.4778 28.392C95.9338 27.936 96.1618 27.312 96.1618 26.52V19.752C96.1618 19.128 96.0538 18.672 95.8378 18.384C95.6458 18.072 95.3698 17.844 95.0098 17.7V15.072C95.0098 13.8 95.3218 12.84 95.9458 12.192C96.5698 11.52 97.4938 11.184 98.7178 11.184H102.498V15.792H100.77C100.338 15.792 100.122 16.032 100.122 16.512V16.872C100.89 17.16 101.442 17.532 101.778 17.988C102.114 18.42 102.282 19.056 102.282 19.896V26.52C102.282 28.704 101.514 30.396 99.9778 31.596C98.4658 32.772 96.3298 33.36 93.5698 33.36ZM78.6658 31.2C79.4338 31.2 79.8178 30.78 79.8178 29.94C79.8178 29.1 79.4338 28.68 78.6658 28.68V31.2ZM96.3697 42.288V34.8H101.914V42.288H96.3697ZM107.757 24.504C107.757 22.32 108.549 20.64 110.133 19.464C111.717 18.264 113.901 17.664 116.685 17.664C119.445 17.664 121.605 18.264 123.165 19.464C124.749 20.64 125.541 22.32 125.541 24.504V33H119.421V24.504C119.421 23.688 119.169 23.064 118.665 22.632C118.161 22.2 117.489 21.984 116.649 21.984C115.833 21.984 115.161 22.2 114.633 22.632C114.129 23.064 113.877 23.688 113.877 24.504V33H107.757V24.504ZM107.613 15.792V11.184H125.685V15.792H107.613ZM135.315 33.216C133.899 33.216 132.855 33.012 132.183 32.604C131.511 32.196 131.175 31.584 131.175 30.768V19.752C131.175 19.128 131.031 18.672 130.743 18.384C130.479 18.072 130.095 17.844 129.591 17.7V15.072C129.591 13.8 129.903 12.84 130.527 12.192C131.151 11.52 132.075 11.184 133.299 11.184H137.583V15.792H135.351C134.919 15.792 134.703 16.032 134.703 16.512V16.872C135.615 17.16 136.275 17.532 136.683 17.988C137.091 18.42 137.295 19.056 137.295 19.896V26.808C137.847 26.928 138.303 27.144 138.663 27.456C139.239 27.984 139.527 28.788 139.527 29.868C139.527 32.1 138.123 33.216 135.315 33.216ZM133.839 10.176C132.519 10.176 131.523 9.924 130.851 9.42C130.179 8.892 129.843 8.184 129.843 7.296C129.843 6.816 129.915 6.384 130.059 6H133.011C132.915 6.216 132.867 6.444 132.867 6.684C132.867 6.924 132.939 7.104 133.083 7.224C133.227 7.32 133.419 7.368 133.659 7.368C133.923 7.368 134.127 7.284 134.271 7.116C134.415 6.924 134.487 6.636 134.487 6.252C134.487 5.7 134.319 5.268 133.983 4.956C133.647 4.644 133.047 4.488 132.183 4.488H130.275V0.599999H133.263C135.231 0.599999 136.599 1.044 137.367 1.932C138.135 2.82 138.519 3.996 138.519 5.46C138.519 7.236 138.087 8.472 137.223 9.168C136.359 9.84 135.231 10.176 133.839 10.176ZM136.143 31.2C136.911 31.2 137.295 30.78 137.295 29.94C137.295 29.1 136.911 28.68 136.143 28.68V31.2ZM150.937 33.36C148.201 33.36 146.113 32.856 144.673 31.848C143.257 30.816 142.549 29.364 142.549 27.492V22.812C144.253 22.692 145.801 22.548 147.193 22.38C148.585 22.188 149.773 21.936 150.757 21.624C151.765 21.312 152.545 20.868 153.097 20.292C153.649 19.716 153.925 18.972 153.925 18.06C153.925 17.124 153.637 16.392 153.061 15.864C152.509 15.336 151.765 15.072 150.829 15.072C150.061 15.072 149.449 15.228 148.993 15.54C148.537 15.852 148.309 16.248 148.309 16.728C148.309 17.016 148.405 17.256 148.597 17.448C148.789 17.616 149.029 17.7 149.317 17.7C149.485 17.7 149.653 17.676 149.821 17.628C149.989 17.58 150.121 17.544 150.217 17.52V20.544C149.953 20.64 149.581 20.724 149.101 20.796C148.645 20.868 148.141 20.904 147.589 20.904C145.957 20.904 144.673 20.544 143.737 19.824C142.801 19.08 142.333 17.976 142.333 16.512C142.333 14.592 143.101 13.164 144.637 12.228C146.197 11.292 148.261 10.824 150.829 10.824C153.565 10.824 155.773 11.364 157.453 12.444C159.133 13.524 159.973 15.216 159.973 17.52C159.973 19.032 159.625 20.292 158.929 21.3C158.233 22.308 157.309 23.124 156.157 23.748C155.029 24.348 153.805 24.816 152.485 25.152C151.165 25.488 149.869 25.74 148.597 25.908V27.384C148.597 27.912 148.813 28.332 149.245 28.644C149.701 28.956 150.277 29.112 150.973 29.112C151.669 29.112 152.257 28.956 152.737 28.644C153.241 28.308 153.493 27.864 153.493 27.312C153.493 26.904 153.373 26.496 153.133 26.088L158.785 24.756C158.977 25.212 159.133 25.668 159.253 26.124C159.397 26.58 159.469 27.132 159.469 27.78C159.469 29.484 158.737 30.84 157.273 31.848C155.833 32.856 153.721 33.36 150.937 33.36ZM156.414 42.432C155.214 42.432 154.338 42.252 153.786 41.892C153.378 41.628 153.126 41.268 153.03 40.812C152.838 40.884 152.622 40.968 152.382 41.064C151.806 41.304 151.146 41.532 150.402 41.748C149.658 41.964 148.842 42.072 147.954 42.072C146.946 42.072 146.058 41.964 145.29 41.748C144.522 41.556 143.79 41.292 143.094 40.956L143.85 37.356C144.402 37.668 145.062 37.968 145.83 38.256C146.598 38.544 147.426 38.688 148.314 38.688C149.01 38.688 149.694 38.604 150.366 38.436C151.038 38.292 151.662 38.124 152.238 37.932C152.502 37.86 152.742 37.8 152.958 37.752V34.8H158.43V37.644C158.814 37.74 159.138 37.896 159.402 38.112C159.81 38.496 160.014 39.108 160.014 39.948C160.014 40.812 159.738 41.436 159.186 41.82C158.61 42.228 157.686 42.432 156.414 42.432ZM157.35 41.028C157.614 41.028 157.842 40.932 158.034 40.74C158.202 40.548 158.286 40.296 158.286 39.984C158.286 39.648 158.202 39.384 158.034 39.192C157.842 39.024 157.614 38.94 157.35 38.94V41.028ZM167.453 33.216C165.917 33.216 164.801 32.94 164.105 32.388C163.409 31.812 163.061 30.972 163.061 29.868C163.061 28.788 163.361 27.984 163.961 27.456C164.369 27.072 164.933 26.832 165.653 26.736V19.752C165.653 19.128 165.509 18.672 165.221 18.384C164.957 18.072 164.573 17.844 164.069 17.7V15.072C164.069 13.8 164.381 12.84 165.005 12.192C165.629 11.52 166.553 11.184 167.777 11.184H172.061V15.792H169.829C169.397 15.792 169.181 16.032 169.181 16.512V16.872C170.093 17.16 170.753 17.532 171.161 17.988C171.569 18.42 171.773 19.056 171.773 19.896V30.768C171.773 32.4 170.333 33.216 167.453 33.216ZM166.805 28.68C166.037 28.68 165.653 29.1 165.653 29.94C165.653 30.78 166.037 31.2 166.805 31.2V28.68Z" fill="#BB006A"/>
<path d="M50.1017 47.1L45.5567 52.665L45.4067 52.275L43.1117 55.14L42.6167 53.055L47.2517 47.1H50.1017ZM43.8767 47.1V57H41.2967V47.1H43.8767ZM46.4117 50.37L50.2817 57H47.3567L44.4767 51.81L46.4117 50.37ZM60.2666 47.1V57H57.6866V47.1H60.2666ZM54.0866 47.1V57H51.5066V47.1H54.0866ZM59.0666 51.015V53.01H52.7666V51.015H59.0666ZM73.7437 47.1V57H71.4637V52.455L71.5387 49.41H71.5087L69.1537 57H67.0687L64.7137 49.41H64.6837L64.7587 52.455V57H62.4637V47.1H66.1387L67.6237 52.14L68.1637 54.24H68.1937L68.7487 52.155L70.2187 47.1H73.7437ZM75.9402 57V47.1H83.4702V49.095H78.5202V51.105H82.4652V52.98H78.5202V55.005H83.6652V57H75.9402ZM89.8623 47.1C91.0223 47.1 91.9223 47.375 92.5623 47.925C93.2023 48.475 93.5223 49.215 93.5223 50.145C93.5223 50.815 93.3773 51.385 93.0873 51.855C92.8073 52.315 92.3923 52.665 91.8423 52.905C91.3023 53.135 90.6473 53.25 89.8773 53.25L89.6373 53.385H87.7623V57H85.2273V47.1H89.8623ZM89.5023 51.555C89.9323 51.555 90.2773 51.465 90.5373 51.285C90.7973 51.105 90.9273 50.775 90.9273 50.295C90.9273 49.805 90.7923 49.475 90.5223 49.305C90.2523 49.135 89.9123 49.05 89.5023 49.05H87.7623V51.555H89.5023ZM91.0173 52.095L94.0923 57H91.2423L88.7973 52.665L91.0173 52.095ZM102.251 55.005H107.036V57H99.6707V47.1H102.251V55.005ZM112.517 46.95C113.507 46.95 114.357 47.155 115.067 47.565C115.777 47.965 116.322 48.545 116.702 49.305C117.082 50.065 117.272 50.98 117.272 52.05C117.272 53.11 117.082 54.025 116.702 54.795C116.322 55.555 115.777 56.14 115.067 56.55C114.357 56.95 113.507 57.15 112.517 57.15C111.537 57.15 110.687 56.95 109.967 56.55C109.257 56.14 108.707 55.555 108.317 54.795C107.937 54.025 107.747 53.11 107.747 52.05C107.747 50.98 107.937 50.065 108.317 49.305C108.707 48.545 109.257 47.965 109.967 47.565C110.687 47.155 111.537 46.95 112.517 46.95ZM112.517 48.975C112.057 48.975 111.667 49.09 111.347 49.32C111.037 49.55 110.797 49.895 110.627 50.355C110.467 50.805 110.387 51.37 110.387 52.05C110.387 52.72 110.467 53.285 110.627 53.745C110.797 54.205 111.037 54.55 111.347 54.78C111.667 55.01 112.057 55.125 112.517 55.125C112.977 55.125 113.362 55.01 113.672 54.78C113.982 54.55 114.217 54.205 114.377 53.745C114.547 53.285 114.632 52.72 114.632 52.05C114.632 51.37 114.547 50.805 114.377 50.355C114.217 49.895 113.982 49.55 113.672 49.32C113.362 49.09 112.977 48.975 112.517 48.975ZM127.631 54.165C127.351 55.195 126.826 55.95 126.056 56.43C125.296 56.91 124.406 57.15 123.386 57.15C122.406 57.15 121.556 56.95 120.836 56.55C120.126 56.14 119.576 55.555 119.186 54.795C118.806 54.025 118.616 53.11 118.616 52.05C118.616 50.98 118.806 50.065 119.186 49.305C119.576 48.545 120.126 47.965 120.836 47.565C121.556 47.155 122.401 46.95 123.371 46.95C124.041 46.95 124.661 47.05 125.231 47.25C125.801 47.44 126.281 47.735 126.671 48.135C127.071 48.535 127.351 49.05 127.511 49.68L125.246 50.595C125.116 49.975 124.896 49.55 124.586 49.32C124.286 49.09 123.911 48.975 123.461 48.975C123.001 48.975 122.606 49.09 122.276 49.32C121.946 49.55 121.691 49.895 121.511 50.355C121.341 50.805 121.256 51.37 121.256 52.05C121.256 52.72 121.336 53.285 121.496 53.745C121.666 54.195 121.916 54.54 122.246 54.78C122.576 55.01 122.986 55.125 123.476 55.125C123.926 55.125 124.311 54.995 124.631 54.735C124.961 54.465 125.181 54.055 125.291 53.505L127.631 54.165ZM137.89 57H135.235L134.575 54.765H131.305L130.63 57H128.035L131.425 47.1H134.515L137.89 57ZM131.785 53.01H134.095L132.94 49.005L131.785 53.01ZM141.626 55.005H146.411V57H139.046V47.1H141.626V55.005Z" fill="#FF0068"/>
<rect x="150" y="55" width="37" height="2" rx="1" fill="#FF0068"/>
<rect y="55" width="37" height="2" rx="1" fill="#FF0068"/>
</svg>
